# xmcd CD database file
#
# Track frame offsets:
#	222
#	15505
#	53477
#	72062
#	93825
#	132257
#	158790
#
# Disc length: 2383 seconds
#
# Revision: 0
# Processed by: cddbd v1.5.1PL0 Copyright (c) Steve Scherf et al.
# Submitted via: CDex 1.51
#
DISCID=49094d07
DTITLE=Jimmy Witherspoon - Big Blues
DYEAR=1987
DGENRE=Blues
TTITLE0=You Got Me Running
TTITLE1=Whiskey Drinking Woman
TTITLE2=Once There Lived A Fool
TTITLE3=Just A Dream
TTITLE4=Lotus Blossom
TTITLE5=Big Boss Man
TTITLE6=Nobody Knows You When You're Down And Out
EXTD=YEAR: 1987
EXTT0=
EXTT1=
EXTT2=
EXTT3=
EXTT4=
EXTT5=
EXTT6=
PLAYORDER=
